<svg width="40" height="40" viewBox="0 0 40 40" fill="none" xmlns="http://www.w3.org/2000/svg">
<circle cx="20.3312" cy="19.6691" r="19.6691" fill="#072E3F"/>
<path d="M14.3313 12.3435C14.3311 12.9043 14.108 13.442 13.7113 13.8383C13.3146 14.2346 12.7767 14.4571 12.2159 14.4568C11.6551 14.4565 11.1174 14.2335 10.7211 13.8368C10.3248 13.4401 10.1023 12.9021 10.1025 12.3414C10.1028 11.7806 10.3259 11.2429 10.7226 10.8466C11.1193 10.4502 11.6572 10.2277 12.218 10.228C12.7788 10.2283 13.3165 10.4513 13.7128 10.8481C14.1091 11.2448 14.3316 11.7827 14.3313 12.3435ZM14.3948 16.0225H10.166V29.2587H14.3948V16.0225ZM21.0763 16.0225H16.8686V29.2587H21.034V22.3129C21.034 18.4435 26.0768 18.0841 26.0768 22.3129V29.2587H30.2528V20.8751C30.2528 14.3522 22.7889 14.5953 21.034 17.7986L21.0763 16.0225Z" fill="white"/>
</svg>
