<svg width="52" height="40" viewBox="0 0 52 40" fill="none" xmlns="http://www.w3.org/2000/svg">
<path d="M19.2674 24.0842H12.0421C13.4872 31.3095 19.8695 32.313 22.88 31.9116V39.1368C14.3414 40.4505 7.92983 37.3606 3.95074 33.989C0.953444 31.4493 0 27.4279 0 23.4993V2.40842C0 1.07829 1.07829 3.8147e-06 2.40842 3.8147e-06H20.4716C21.8017 3.8147e-06 22.88 1.07829 22.88 2.40843V20.4716C22.88 22.4668 21.2626 24.0842 19.2674 24.0842Z" fill="#9CE2FF"/>
<path d="M48.3875 24.0842H41.1622C42.6073 31.3095 48.9896 32.313 52.0001 31.9116V39.1368C43.4615 40.4505 37.0499 37.3606 33.0709 33.989C30.0736 31.4493 29.1201 27.4279 29.1201 23.4993V2.40842C29.1201 1.07829 30.1984 3.8147e-06 31.5285 3.8147e-06H49.5917C50.9218 3.8147e-06 52.0001 1.07829 52.0001 2.40843V20.4716C52.0001 22.4668 50.3827 24.0842 48.3875 24.0842Z" fill="#9CE2FF"/>
</svg>
